<svg width="210" height="46" viewBox="0 0 210 46" fill="none" xmlns="http://www.w3.org/2000/svg">
<path d="M50.3825 27.6052C47.4793 22.8944 43.35 20.8151 41.1324 19.9902C44.5697 14.1038 43.1869 7.75966 43.1869 7.75966C38.2239 6.88252 34.1936 8.33825 31.9757 9.4646C31.1976 7.06244 29.3521 3.03334 25.1899 0C25.1899 0 20.1611 3.18316 18.4002 9.46061C16.1802 8.33571 12.152 6.88216 7.19425 7.75966C7.19425 7.75966 5.8114 14.1038 9.24875 19.9888C7.03115 20.8141 2.90325 22.893 0 27.6023C0 27.6023 3.39535 32.5582 9.5235 34.0908C8.55435 36.4371 7.40705 40.5692 8.46195 45.5393C8.46195 45.5393 15.7336 46.8779 21.5681 41.8414C21.5681 41.8414 14.3269 40.8573 10.5784 32.0315C9.62955 29.5626 8.7885 25.3655 10.6176 20.0719C11.417 18.0071 13.5209 14.0302 18.3687 11.4623C19.7617 10.7426 24.4346 8.76666 30.435 10.7204C36.4224 13.1904 38.8843 17.7945 39.766 20.0704C41.5954 25.3637 40.7554 29.5611 39.8052 32.03C36.0567 40.8558 28.8155 41.84 28.8155 41.84C34.65 46.8768 41.9216 45.5379 41.9216 45.5379C42.9779 40.5689 41.8306 36.4371 40.8615 34.0919C46.9872 32.5611 50.3825 27.6052 50.3825 27.6052Z" fill="#316BFF"/>
<path d="M25.1829 14.6355C18.2389 14.6355 14.8054 19.6226 14.8054 25.7738C14.8054 31.9251 25.1829 45.9999 25.1829 45.9999C25.1829 45.9999 35.5604 31.9261 35.5604 25.7738C35.5604 19.6215 32.1269 14.6355 25.1829 14.6355ZM25.1829 29.6045C22.1264 29.6045 19.6484 27.0511 19.6484 23.9017C19.6484 20.7522 22.1267 18.1988 25.1829 18.1988C28.2391 18.1988 30.7175 20.7522 30.7175 23.9017C30.7175 27.0511 28.2381 29.6045 25.1829 29.6045Z" fill="#316BFF"/>
<path d="M73.4793 17.2932H65.9813V35.5096H61.79V13.448H77.6692V35.5096H73.4779V17.2932H73.4793Z" fill="#316BFF"/>
<path d="M81.5491 19.7516H84.4562L84.9154 21.6416H85.0369C85.5668 20.8439 86.1943 20.2548 86.9181 19.8768C87.6416 19.5002 88.5246 19.3083 89.5645 19.3083C91.4835 19.3083 92.922 19.9326 93.8772 21.1852C94.8362 22.4338 95.3157 24.4453 95.3157 27.2204C95.3157 28.5644 95.1638 29.7778 94.8565 30.8624C94.5492 31.9416 94.0949 32.8608 93.4978 33.6193C92.8919 34.3742 92.1594 34.9543 91.2928 35.3529C90.4262 35.752 89.4332 35.9511 88.3097 35.9511C87.6783 35.9511 87.1572 35.9029 86.7487 35.8078C86.3403 35.7128 85.9329 35.5601 85.5279 35.3529V41.8128H81.5481V19.7513L81.5491 19.7516ZM88.3727 22.7784C87.5947 22.7784 86.9888 22.978 86.551 23.3766C86.1131 23.7757 85.7729 24.3738 85.5286 25.1715V31.7305C85.8107 31.9597 86.1219 32.1422 86.4586 32.2804C86.7949 32.4146 87.2415 32.4839 87.7921 32.4839C88.932 32.4839 89.7909 32.0682 90.359 31.2389C90.9309 30.4061 91.2168 29.0359 91.2168 27.1253C91.2168 25.7385 90.989 24.6669 90.5438 23.9084C90.0934 23.155 89.3695 22.7784 88.3727 22.7784Z" fill="#316BFF"/>
<path d="M107.576 28.3218L107.744 26.085H107.643L106.33 28.387L100.885 35.5093H98.3723V19.7513H102.352V27.2516L102.167 29.3973H102.289L103.543 27.1566L109.055 19.7513H111.562V35.5093H107.573V28.3218H107.576Z" fill="#316BFF"/>
<path d="M115.352 19.7816C116.066 19.7203 116.925 19.6565 117.935 19.5912C118.944 19.5299 120.03 19.4998 121.2 19.4998C123.438 19.4998 125.037 19.8295 125.98 20.493C126.931 21.1525 127.402 22.1446 127.402 23.4715C127.402 24.2039 127.199 24.9197 126.796 25.6132C126.384 26.3068 125.744 26.81 124.869 27.1266V27.2518C125.971 27.5035 126.763 27.949 127.25 28.5918C127.738 29.2332 127.99 30.057 127.99 31.0672C127.99 32.6405 127.4 33.8202 126.231 34.5957C125.054 35.3764 123.176 35.7623 120.585 35.7623C119.728 35.7623 118.818 35.7362 117.859 35.684C116.9 35.6318 116.067 35.5628 115.352 35.4805V19.7816H115.352ZM121.35 26.1802C121.998 26.1802 122.537 26.0159 122.957 25.6901C123.369 25.3655 123.579 24.9483 123.579 24.4452C123.579 23.8989 123.402 23.4832 123.04 23.2002C122.687 22.9133 122.038 22.7754 121.105 22.7754C120.634 22.7754 120.263 22.7845 119.985 22.8055C119.707 22.8277 119.464 22.8487 119.236 22.8708V26.1791H121.35V26.1802H121.35ZM119.239 32.359C119.525 32.4022 119.785 32.4334 120.03 32.454C120.274 32.4762 120.585 32.4842 120.947 32.4842C122.048 32.4842 122.841 32.3278 123.302 32.0111C123.773 31.6944 124.01 31.2134 124.01 30.563C124.01 30.0167 123.807 29.5698 123.412 29.223C123.017 28.8762 122.311 28.7028 121.283 28.7028H119.239V32.359Z" fill="#316BFF"/>
<path d="M143.338 34.1538C142.732 34.6609 141.9 35.0857 140.847 35.4325C139.796 35.7793 138.676 35.9527 137.498 35.9527C135.033 35.9527 133.224 35.2109 132.088 33.729C130.943 32.2508 130.371 30.2176 130.371 27.6301C130.371 24.8601 131.011 22.7786 132.298 21.3914C133.586 20.0046 135.386 19.311 137.708 19.311C138.482 19.311 139.24 19.4151 139.971 19.6277C140.711 19.8363 141.361 20.1831 141.932 20.6677C142.504 21.1487 142.959 21.7992 143.312 22.619C143.658 23.4388 143.826 24.4607 143.826 25.6795C143.826 26.1174 143.8 26.5893 143.75 27.0979C143.699 27.601 143.623 28.1252 143.522 28.6712H134.35C134.41 29.9981 134.737 30.9953 135.343 31.6664C135.94 32.339 136.917 32.6767 138.263 32.6767C139.096 32.6767 139.845 32.5425 140.509 32.2816C141.174 32.0172 141.679 31.7484 142.024 31.4749L143.338 34.1538ZM137.65 22.5867C136.615 22.5867 135.841 22.9074 135.344 23.5487C134.839 24.1901 134.545 25.044 134.436 26.1152H140.132C140.208 24.9838 140.04 24.1117 139.628 23.5016C139.206 22.8903 138.55 22.5867 137.65 22.5867Z" fill="#316BFF"/>
<path d="M157.965 23.3753H153.715V35.5093H149.609V23.3753H145.242V19.7513H157.965V23.3753Z" fill="#316BFF"/>
<path d="M174.726 15.7812H168.062V35.5107H165.521V15.7812H158.847V13.4495H174.726V15.7812Z" fill="#316BFF"/>
<path d="M178.537 29.9605L179.395 32.9859H179.547L180.229 29.9293L183.199 19.7505H185.649L181.121 33.9011C180.776 34.9335 180.432 35.9293 180.094 36.8964C179.766 37.8635 179.386 38.7265 178.983 39.4799C178.571 40.2384 178.116 40.8406 177.603 41.2919C177.098 41.7428 176.501 41.9684 175.827 41.9684C175.094 41.9684 174.497 41.8643 174.027 41.6568L174.455 39.4799C174.716 39.584 174.976 39.6363 175.221 39.6363C175.793 39.6363 176.34 39.3286 176.87 38.7083C177.4 38.088 177.838 37.0215 178.183 35.5096L172.04 19.7519H174.851L178.537 29.9605Z" fill="#316BFF"/>
<path d="M188.585 19.7516H190.267L190.722 21.6416H190.848C191.319 20.9052 191.925 20.3458 192.666 19.9548C193.415 19.5652 194.265 19.3733 195.224 19.3733C197.261 19.3733 198.784 19.9936 199.777 21.2335C200.779 22.473 201.284 24.4975 201.284 27.3154C201.284 28.6373 201.115 29.8297 200.779 30.8922C200.443 31.9547 199.963 32.8514 199.357 33.5892C198.742 34.3216 198.002 34.8901 197.135 35.2891C196.269 35.6881 195.301 35.8873 194.241 35.8873C193.492 35.8873 192.895 35.839 192.457 35.7491C192.019 35.654 191.54 35.4882 191.035 35.259V41.8143H188.586V19.7516H188.585ZM194.762 21.5767C193.727 21.5767 192.903 21.8582 192.306 22.4135C191.7 22.9729 191.279 23.8188 191.036 24.9503V32.7672C191.398 33.0618 191.819 33.2874 192.289 33.4478C192.752 33.6041 193.375 33.6825 194.158 33.6825C195.564 33.6825 196.674 33.1456 197.507 32.061C198.332 30.9778 198.744 29.3864 198.744 27.2839C198.744 26.4249 198.668 25.6413 198.525 24.939C198.383 24.2324 198.155 23.6342 197.844 23.1401C197.524 22.65 197.12 22.2641 196.615 21.9916C196.117 21.716 195.494 21.5767 194.762 21.5767Z" fill="#316BFF"/>
<path d="M206.45 34.0625C206.45 33.4941 206.609 33.0483 206.921 32.7225C207.241 32.3928 207.661 32.2325 208.191 32.2325C208.746 32.2325 209.184 32.3928 209.504 32.7225C209.832 33.0472 210 33.4941 210 34.0625C210 34.6089 209.832 35.0467 209.504 35.3844C209.184 35.7182 208.746 35.8876 208.191 35.8876C207.661 35.8876 207.24 35.7182 206.921 35.3844C206.609 35.0467 206.45 34.6089 206.45 34.0625ZM206.971 13.448H209.504V24.3854L208.99 29.9304H207.484L206.97 24.3854V13.448H206.971Z" fill="#316BFF"/>
</svg>
