<?xml version="1.0" encoding="utf-8"?><svg width="88" height="88" viewBox="0 0 88 88" xmlns="http://www.w3.org/2000/svg" xmlns:xlink="http://www.w3.org/1999/xlink"><view id="social-dzen" viewBox="0 0 44 44"/><svg width="44" height="44" fill="none" viewBox="-2 -2 44 44" xmlns="http://www.w3.org/2000/svg"><rect width="40" height="40" rx="9.115" fill="#35393F"/><rect width="40" height="40" rx="9.115" fill="url(#apaint0_linear_1_652)"/><path fill-rule="evenodd" clip-rule="evenodd" d="M40 20.22v-.44c-8.856-.269-12.906-.49-16.136-3.644-3.154-3.23-3.376-7.28-3.643-16.136h-.442c-.267 8.857-.49 12.906-3.643 16.136C12.906 19.29 8.856 19.51 0 19.779v.442c8.856.268 12.906.489 16.136 3.643 3.154 3.23 3.376 7.28 3.643 16.136h.442c.267-8.857.49-12.906 3.643-16.136 3.23-3.154 7.28-3.375 16.136-3.643z" fill="#fff"/><defs><linearGradient id="apaint0_linear_1_652" x1="40" y1="40" x2="40" y2="0" gradientUnits="userSpaceOnUse"><stop stop-color="#fff" stop-opacity=".01"/><stop offset=".475" stop-color="#fff" stop-opacity=".01"/><stop offset=".76" stop-color="#fff" stop-opacity=".043"/><stop offset=".995" stop-color="#fff" stop-opacity=".099"/><stop offset="1" stop-color="#fff" stop-opacity=".1"/></linearGradient></defs></svg><view id="social-instagram" viewBox="44 0 44 44"/><svg width="44" height="44" fill="none" viewBox="-2 -2 44 44" x="44" xmlns="http://www.w3.org/2000/svg"><rect width="40" height="40" rx="9.115" fill="url(#bpaint0_linear_1_649)"/><path d="M19.775 5.014c-6.052 0-11.798-.538-13.993 5.095-.907 2.327-.775 5.348-.775 9.675 0 3.797-.122 7.365.775 9.673 2.19 5.637 7.983 5.097 13.99 5.097 5.795 0 11.77.603 13.991-5.097.909-2.35.775-5.326.775-9.673 0-5.77.319-9.495-2.48-12.292-2.833-2.833-6.665-2.478-12.29-2.478h.007zm-1.323 2.662c12.623-.02 14.23-1.424 13.343 18.071-.315 6.895-5.565 6.139-12.018 6.139-11.767 0-12.105-.337-12.105-12.109 0-11.908.933-12.095 10.78-12.105v.004zm9.206 2.451a1.772 1.772 0 100 3.544 1.772 1.772 0 000-3.544zM19.775 12.2a7.585 7.585 0 000 15.168 7.582 7.582 0 007.582-7.583 7.583 7.583 0 00-7.582-7.585zm0 2.662c6.508 0 6.517 9.846 0 9.846-6.507 0-6.517-9.846 0-9.846z" fill="#fff"/><defs><linearGradient id="bpaint0_linear_1_649" x1="2.686" y1="37.394" x2="39.748" y2="5.31" gradientUnits="userSpaceOnUse"><stop stop-color="#FD5"/><stop offset=".5" stop-color="#FF543E"/><stop offset="1" stop-color="#C837AB"/></linearGradient></defs></svg><view id="social-vk" viewBox="0 44 44 44"/><svg width="44" height="44" fill="none" viewBox="-2 -2 44 44" y="44" xmlns="http://www.w3.org/2000/svg"><rect width="40" height="40" rx="9.115" fill="#48729E"/><g clip-path="url(#cclip0_1_645)"><path fill-rule="evenodd" clip-rule="evenodd" d="M19.721 27.942h1.554s.47-.049.71-.293c.22-.224.213-.644.213-.644s-.03-1.968.937-2.258c.954-.285 2.18 1.902 3.478 2.744.982.636 1.728.497 1.728.497l3.472-.046s1.816-.106.955-1.454c-.07-.11-.502-.997-2.582-2.819-2.177-1.907-1.885-1.599.738-4.898 1.597-2.009 2.235-3.236 2.036-3.761-.19-.5-1.365-.368-1.365-.368l-3.91.023s-.29-.038-.505.084c-.21.118-.345.396-.345.396s-.619 1.554-1.443 2.877c-1.741 2.79-2.437 2.937-2.722 2.764-.662-.404-.497-1.622-.497-2.488 0-2.704.435-3.831-.846-4.123-.425-.097-.738-.16-1.825-.171-1.394-.013-2.575.004-3.243.313-.445.206-.788.664-.58.69.26.033.844.15 1.154.548.401.514.387 1.67.387 1.67s.23 3.182-.538 3.577c-.526.272-1.25-.282-2.801-2.813-.796-1.297-1.396-2.73-1.396-2.73s-.115-.268-.322-.411c-.25-.174-.6-.229-.6-.229l-3.716.023s-.557.014-.762.243c-.182.204-.015.625-.015.625s2.909 6.423 6.202 9.659c3.02 2.968 6.449 2.773 6.449 2.773z" fill="#fff"/></g><defs><clipPath id="cclip0_1_645"><path fill="#fff" transform="translate(7 14)" d="M0 0h26v14H0z"/></clipPath></defs></svg><view id="social-whatsapp" viewBox="44 44 44 44"/><svg width="44" height="44" fill="none" viewBox="-2 -2 44 44" x="44" y="44" xmlns="http://www.w3.org/2000/svg"><rect width="40" height="40" rx="10" fill="#25D366"/><path fill-rule="evenodd" clip-rule="evenodd" d="M20.66 31.127h-.006c-1.99 0-3.946-.5-5.683-1.447l-6.304 1.654 1.687-6.163a11.871 11.871 0 01-1.588-5.946C8.77 12.668 14.104 7.333 20.66 7.333a11.816 11.816 0 018.413 3.488 11.821 11.821 0 013.48 8.414c-.003 6.555-5.336 11.89-11.893 11.892zm-5.397-3.6l.361.214a9.87 9.87 0 005.031 1.378h.004c5.448 0 9.883-4.435 9.885-9.885a9.825 9.825 0 00-2.893-6.993 9.818 9.818 0 00-6.988-2.899c-5.452 0-9.886 4.434-9.889 9.884a9.86 9.86 0 001.512 5.26l.235.374-.999 3.648 3.741-.981zm10.98-5.732c.208.1.348.168.408.268.074.124.074.719-.174 1.413-.247.694-1.434 1.328-2.005 1.413-.512.076-1.16.108-1.872-.118-.432-.137-.985-.32-1.694-.626-2.786-1.203-4.668-3.903-5.024-4.413a3.525 3.525 0 00-.052-.074l-.003-.003c-.157-.21-1.21-1.616-1.21-3.07 0-1.37.672-2.087.981-2.417l.058-.063c.273-.297.595-.372.793-.372a11.796 11.796 0 01.636.012c.173-.001.389-.003.602.509l.328.796c.256.623.538 1.31.588 1.41.074.15.124.323.025.521a9.01 9.01 0 00-.042.085c-.074.152-.129.263-.255.41l-.153.184c-.102.124-.204.249-.293.337-.149.148-.304.31-.13.607.173.297.77 1.27 1.653 2.058A7.672 7.672 0 0021.6 22.05c.082.035.148.064.197.088.297.149.47.124.643-.074.174-.198.743-.868.941-1.165.198-.298.396-.248.669-.15.272.1 1.733.819 2.03.968a13 13 0 00.163.08z" fill="#FDFDFD"/></svg></svg>