<svg width="224" height="185" viewBox="0 0 224 185" fill="none" xmlns="http://www.w3.org/2000/svg">
<path opacity="0.1" fill-rule="evenodd" clip-rule="evenodd" d="M56.8974 0L58.6923 0.752859L84.4487 11.5563L110.205 0.752859L112 0L113.795 0.752859L139.551 11.5563L165.308 0.752859L167.103 0L168.897 0.752859L194.654 11.5563L220.41 0.752859L224 5.55426L196.449 17.1106L194.654 17.8634L192.859 17.1106L167.103 6.30712L141.346 17.1106L139.551 17.8634L137.756 17.1106L112 6.30712L86.2436 17.1106L84.4487 17.8634L82.6538 17.1106L56.8974 6.30712L31.141 17.1106L29.3462 17.8634L27.5513 17.1106L0 5.55426L3.58977 0.752859L29.3462 11.5563L55.1026 0.752859L56.8974 0ZM56.8974 33.5683L58.6923 34.3212L84.4487 45.1246L110.205 34.3212L112 33.5683L113.795 34.3212L139.551 45.1246L165.308 34.3212L167.103 33.5683L168.897 34.3212L194.654 45.1246L220.41 34.3212L224 39.1226L196.449 50.6789L194.654 51.4317L192.859 50.6789L167.103 39.8754L141.346 50.6789L139.551 51.4317L137.756 50.6789L112 39.8754L86.2436 50.6789L84.4487 51.4317L82.6538 50.6789L56.8974 39.8754L31.141 50.6789L29.3462 51.4317L27.5513 50.6789L0 39.1226L3.58977 34.3212L29.3462 45.1246L55.1026 34.3212L56.8974 33.5683ZM58.6923 67.8894L56.8974 67.1366L55.1026 67.8894L29.3462 78.6929L3.58977 67.8894L0 72.6908L27.5513 84.2471L29.3462 85L31.141 84.2471L56.8974 73.4437L82.6538 84.2471L84.4487 85L86.2436 84.2471L112 73.4437L137.756 84.2471L139.551 85L141.346 84.2471L167.103 73.4437L192.859 84.2471L194.654 85L196.449 84.2471L224 72.6908L220.41 67.8894L194.654 78.6929L168.897 67.8894L167.103 67.1366L165.308 67.8894L139.551 78.6929L113.795 67.8894L112 67.1366L110.205 67.8894L84.4487 78.6929L58.6923 67.8894Z" fill="#316BFF"/>
<path opacity="0.1" fill-rule="evenodd" clip-rule="evenodd" d="M56.8974 100L58.6923 100.753L84.4487 111.556L110.205 100.753L112 100L113.795 100.753L139.551 111.556L165.308 100.753L167.103 100L168.897 100.753L194.654 111.556L220.41 100.753L224 105.554L196.449 117.111L194.654 117.863L192.859 117.111L167.103 106.307L141.346 117.111L139.551 117.863L137.756 117.111L112 106.307L86.2436 117.111L84.4487 117.863L82.6538 117.111L56.8974 106.307L31.141 117.111L29.3462 117.863L27.5513 117.111L0 105.554L3.58977 100.753L29.3462 111.556L55.1026 100.753L56.8974 100ZM56.8974 133.568L58.6923 134.321L84.4487 145.125L110.205 134.321L112 133.568L113.795 134.321L139.551 145.125L165.308 134.321L167.103 133.568L168.897 134.321L194.654 145.125L220.41 134.321L224 139.123L196.449 150.679L194.654 151.432L192.859 150.679L167.103 139.875L141.346 150.679L139.551 151.432L137.756 150.679L112 139.875L86.2436 150.679L84.4487 151.432L82.6538 150.679L56.8974 139.875L31.141 150.679L29.3462 151.432L27.5513 150.679L0 139.123L3.58977 134.321L29.3462 145.125L55.1026 134.321L56.8974 133.568ZM58.6923 167.889L56.8974 167.137L55.1026 167.889L29.3462 178.693L3.58977 167.889L0 172.691L27.5513 184.247L29.3462 185L31.141 184.247L56.8974 173.444L82.6538 184.247L84.4487 185L86.2436 184.247L112 173.444L137.756 184.247L139.551 185L141.346 184.247L167.103 173.444L192.859 184.247L194.654 185L196.449 184.247L224 172.691L220.41 167.889L194.654 178.693L168.897 167.889L167.103 167.137L165.308 167.889L139.551 178.693L113.795 167.889L112 167.137L110.205 167.889L84.4487 178.693L58.6923 167.889Z" fill="#316BFF"/>
</svg>
