<svg width="242" height="70" viewBox="0 0 242 70" fill="none" xmlns="http://www.w3.org/2000/svg">
<path d="M240.566 25.6726C240.888 29.7937 238.208 34.1869 232.504 38.622C226.838 43.0277 218.409 47.2942 207.793 51.1691C186.575 58.914 156.846 65.0156 123.643 67.6117C90.4411 70.2078 60.1249 68.8011 37.9611 64.4482C26.8721 62.2704 17.8816 59.366 11.5999 55.8944C5.27628 52.3997 1.94593 48.4764 1.62371 44.3553C1.30148 40.2343 3.98156 35.841 9.68512 31.4059C15.351 27.0002 23.7807 22.7337 34.3965 18.8588C55.6144 11.1139 85.3435 5.01233 118.546 2.41625C151.748 -0.179824 182.064 1.22684 204.228 5.57973C215.317 7.75758 224.308 10.662 230.589 14.1335C236.913 17.6282 240.243 21.5515 240.566 25.6726Z" stroke="#2A2536" stroke-width="2"/>
</svg>
