<svg width="184" height="53" viewBox="0 0 184 53" fill="none" xmlns="http://www.w3.org/2000/svg">
<path d="M182.047 19.4632C182.28 22.4508 180.34 25.6998 176.049 29.0362C171.796 32.3433 165.453 35.5568 157.443 38.4806C141.436 44.3233 118.994 48.9306 93.9213 50.8911C68.8481 52.8515 45.9633 51.7883 29.243 48.5045C20.8757 46.8612 14.11 44.6727 9.3947 42.0669C4.63757 39.4379 2.21541 36.53 1.98182 33.5424C1.74822 30.5548 3.68897 27.3058 7.97966 23.9694C12.2326 20.6623 18.576 17.4488 26.5862 14.525C42.5929 8.68224 65.0343 4.07497 90.1074 2.11451C115.181 0.154053 138.065 1.21729 154.786 4.50111C163.153 6.14441 169.919 8.33286 174.634 10.9387C179.391 13.5677 181.813 16.4756 182.047 19.4632Z" stroke="#2A2536" stroke-width="2"/>
</svg>
