<svg width="40" height="40" viewBox="0 0 40 40" fill="none" xmlns="http://www.w3.org/2000/svg">
<rect width="40" height="40" rx="9.11539" fill="url(#paint0_linear_1_649)"/>
<path d="M19.775 5.01401C13.7233 5.01401 7.97667 4.47568 5.78167 10.109C4.875 12.4357 5.00667 15.4573 5.00667 19.784C5.00667 23.5807 4.885 27.149 5.78167 29.4573C7.97167 35.094 13.765 34.554 19.7717 34.554C25.5667 34.554 31.5417 35.1573 33.7633 29.4573C34.6717 27.1073 34.5383 24.1307 34.5383 19.784C34.5383 14.014 34.8567 10.289 32.0583 7.49234C29.225 4.65901 25.3933 5.01401 19.7683 5.01401H19.775ZM18.4517 7.67568C31.075 7.65568 32.6817 6.25235 31.795 25.7473C31.48 32.6423 26.23 31.8857 19.7767 31.8857C8.01 31.8857 7.67167 31.549 7.67167 19.7773C7.67167 7.86901 8.605 7.68234 18.4517 7.67234V7.67568ZM27.6583 10.1273C26.68 10.1273 25.8867 10.9207 25.8867 11.899C25.8867 12.8773 26.68 13.6707 27.6583 13.6707C28.6367 13.6707 29.43 12.8773 29.43 11.899C29.43 10.9207 28.6367 10.1273 27.6583 10.1273ZM19.775 12.199C15.5867 12.199 12.1917 15.5957 12.1917 19.784C12.1917 23.9723 15.5867 27.3673 19.775 27.3673C23.9633 27.3673 27.3567 23.9723 27.3567 19.784C27.3567 15.5957 23.9633 12.199 19.775 12.199ZM19.775 14.8607C26.2833 14.8607 26.2917 24.7073 19.775 24.7073C13.2683 24.7073 13.2583 14.8607 19.775 14.8607Z" fill="white"/>
<defs>
<linearGradient id="paint0_linear_1_649" x1="2.68567" y1="37.394" x2="39.7484" y2="5.31035" gradientUnits="userSpaceOnUse">
<stop stop-color="#FFDD55"/>
<stop offset="0.5" stop-color="#FF543E"/>
<stop offset="1" stop-color="#C837AB"/>
</linearGradient>
</defs>
</svg>
