<svg width="40" height="40" viewBox="0 0 40 40" fill="none" xmlns="http://www.w3.org/2000/svg">
<rect width="40" height="40" rx="9.11539" fill="#35393F"/>
<rect width="40" height="40" rx="9.11539" fill="url(#paint0_linear_1_652)"/>
<path fill-rule="evenodd" clip-rule="evenodd" d="M40 20.2206V19.9996V19.7794C31.1439 19.5114 27.0941 19.2905 23.864 16.1356C20.7101 12.9062 20.4883 8.85652 20.221 0H20H19.779C19.5117 8.85652 19.2899 12.9062 16.1359 16.1356C12.9059 19.2905 8.85602 19.5114 0 19.7794V19.9996V20.2206C8.85602 20.4886 12.9059 20.7096 16.1359 23.8637C19.2899 27.0938 19.5117 31.1435 19.779 40H20H20.221C20.4883 31.1435 20.7101 27.0938 23.864 23.8637C27.0941 20.7096 31.1439 20.4886 40 20.2206Z" fill="white"/>
<defs>
<linearGradient id="paint0_linear_1_652" x1="40" y1="40" x2="40" y2="0" gradientUnits="userSpaceOnUse">
<stop stop-color="white" stop-opacity="0.01"/>
<stop offset="0.47509" stop-color="white" stop-opacity="0.01"/>
<stop offset="0.76042" stop-color="white" stop-opacity="0.04271"/>
<stop offset="0.99531" stop-color="white" stop-opacity="0.09855"/>
<stop offset="1" stop-color="white" stop-opacity="0.1"/>
</linearGradient>
</defs>
</svg>
