<svg width="40" height="40" viewBox="0 0 40 40" fill="none" xmlns="http://www.w3.org/2000/svg">
<rect width="40" height="40" rx="10" fill="#25D366"/>
<path fill-rule="evenodd" clip-rule="evenodd" d="M20.6593 31.1273H20.6544C18.664 31.1266 16.7083 30.6272 14.9712 29.6797L8.66675 31.3335L10.3539 25.1709C9.31319 23.3673 8.76556 21.3214 8.76646 19.2254C8.76907 12.6682 14.1041 7.3335 20.6592 7.3335C23.8406 7.33487 26.8266 8.57338 29.0719 10.8213C31.3172 13.0692 32.5531 16.0571 32.5519 19.2347C32.5492 25.7904 27.2163 31.1246 20.6593 31.1273ZM15.2633 27.5267L15.6243 27.7409C17.1419 28.6415 18.8816 29.1181 20.6553 29.1188H20.6593C26.1074 29.1188 30.5417 24.6844 30.5439 19.234C30.5449 16.5928 29.5177 14.1094 27.6515 12.241C25.7852 10.3726 23.3034 9.34309 20.6632 9.34218C15.2109 9.34218 10.7766 13.7761 10.7744 19.226C10.7736 21.0938 11.2962 22.9127 12.2857 24.4865L12.5207 24.8605L11.5222 28.5081L15.2633 27.5267ZM26.2438 21.7952C26.451 21.8954 26.591 21.963 26.6507 22.0628C26.725 22.1867 26.725 22.7817 26.4775 23.4759C26.2298 24.17 25.0426 24.8035 24.4717 24.8888C23.9597 24.9653 23.3119 24.9973 22.6 24.771C22.1684 24.6341 21.615 24.4513 20.906 24.1451C18.1202 22.9422 16.2376 20.2422 15.8818 19.7319C15.8569 19.6961 15.8394 19.6711 15.8297 19.6581L15.8273 19.6549C15.67 19.4451 14.6163 18.0392 14.6163 16.5842C14.6163 15.2154 15.2887 14.4979 15.5982 14.1677C15.6194 14.1451 15.6389 14.1243 15.6564 14.1052C15.9287 13.8077 16.2507 13.7333 16.4488 13.7333C16.6469 13.7333 16.8452 13.7351 17.0183 13.7438C17.0397 13.7449 17.0619 13.7448 17.0849 13.7446C17.258 13.7436 17.4739 13.7424 17.6869 14.2539C17.7688 14.4508 17.8887 14.7427 18.0151 15.0505C18.2709 15.673 18.5534 16.3608 18.6031 16.4604C18.6774 16.6091 18.7269 16.7826 18.6279 16.981C18.613 17.0107 18.5992 17.0388 18.5861 17.0656C18.5117 17.2175 18.457 17.3292 18.3307 17.4767C18.2811 17.5346 18.2297 17.5971 18.1784 17.6596C18.0762 17.7841 17.974 17.9086 17.885 17.9973C17.7362 18.1455 17.5813 18.3062 17.7547 18.6037C17.928 18.9012 18.5244 19.8743 19.4078 20.6623C20.3574 21.5093 21.1827 21.8673 21.6011 22.0487C21.6828 22.0842 21.7489 22.1129 21.7975 22.1372C22.0945 22.286 22.2679 22.2611 22.4412 22.0628C22.6146 21.8645 23.1841 21.1951 23.3821 20.8976C23.5802 20.6002 23.7784 20.6498 24.0507 20.7489C24.3231 20.8482 25.7841 21.567 26.0813 21.7157C26.1393 21.7447 26.1935 21.7709 26.2438 21.7952Z" fill="#FDFDFD"/>
</svg>
