<svg version="1.1" viewBox="0 0 40 40" xmlns="http://www.w3.org/2000/svg">
    <rect width="40" height="40" ry="10" fill="#37aee2"/>
    <path d="m15.547 31.562c-0.8594 0-0.7813-0.3125-1.0157-1.0937l-2.5-8.2032 19.141-11.25" fill="#C8DAEA"/>
    <path d="m15.547 31.562c0.5469 0 0.8593-0.3125 1.25-0.625l3.5156-3.3594-4.375-2.6562" fill="#A9C9DD"/>
    <path d="m15.938 24.922 10.547 7.7344c1.0937 0.7031 2.0312 0.3125 2.3437-1.0938l4.2969-20.156c0.3906-1.7187-0.7031-2.5-1.875-1.9531l-25.078 9.6875c-1.6406 0.625-1.6406 1.6407-0.3125 2.0313l6.4844 2.0312 14.844-9.4531c0.7031-0.3906 1.3281-0.2344 0.8594 0.3125" fill="#F6FBFE"/>
</svg>
